<svg width="40" height="40" viewBox="0 0 40 40" fill="none" xmlns="http://www.w3.org/2000/svg">
<mask id="mask0_17_7" style="mask-type:alpha" maskUnits="userSpaceOnUse" x="0" y="0" width="40" height="40">
<rect width="40" height="40" fill="#D9D9D9"/>
</mask>
<g mask="url(#mask0_17_7)">
<path d="M8.12499 35C7.76366 35 7.44433 34.861 7.16699 34.583C6.88899 34.3057 6.74999 33.9863 6.74999 33.625V31.875H6.37499C5.06966 31.875 3.95866 31.4167 3.04199 30.5C2.12533 29.5833 1.66699 28.4723 1.66699 27.167V17.625C1.66699 16.2083 2.11833 15.0903 3.02099 14.271C3.92366 13.4517 4.98599 13.042 6.20799 13.042V9.542C6.20799 8.236 6.63866 7.15267 7.49999 6.292C8.36133 5.43067 9.45866 5 10.792 5H29.25C30.5553 5 31.6387 5.43067 32.5 6.292C33.3613 7.15267 33.792 8.236 33.792 9.542V13.042C35.014 13.042 36.0763 13.4517 36.979 14.271C37.8817 15.0903 38.333 16.2083 38.333 17.625V27.167C38.333 28.4723 37.8747 29.5833 36.958 30.5C36.0413 31.4167 34.9303 31.875 33.625 31.875H33.25V33.625C33.25 33.9863 33.111 34.3057 32.833 34.583C32.5557 34.861 32.2363 35 31.875 35C31.4863 35 31.153 34.861 30.875 34.583C30.597 34.3057 30.458 33.9863 30.458 33.625V31.875H9.54199V33.625C9.54199 33.9863 9.40299 34.3057 9.12499 34.583C8.84699 34.861 8.51366 35 8.12499 35ZM6.37499 29.125H33.625C34.153 29.125 34.6043 28.9307 34.979 28.542C35.3543 28.1527 35.542 27.6943 35.542 27.167V17.625C35.542 17.097 35.382 16.6663 35.062 16.333C34.7427 15.9997 34.3193 15.833 33.792 15.833C33.264 15.833 32.8333 15.9997 32.5 16.333C32.1667 16.6663 32 17.097 32 17.625V24.708H7.99999V17.625C7.99999 17.097 7.83333 16.6663 7.49999 16.333C7.16666 15.9997 6.73599 15.833 6.20799 15.833C5.68066 15.833 5.25733 15.9997 4.93799 16.333C4.61799 16.6663 4.45799 17.097 4.45799 17.625V27.167C4.45799 27.6943 4.64566 28.1527 5.02099 28.542C5.39566 28.9307 5.84699 29.125 6.37499 29.125ZM10.792 21.958H29.208V17.625C29.208 16.7917 29.3887 16.0833 29.75 15.5C30.1113 14.9167 30.528 14.4307 31 14.042V9.542C31 9.014 30.8333 8.59033 30.5 8.271C30.1667 7.95167 29.75 7.792 29.25 7.792H10.75C10.25 7.792 9.83333 7.95167 9.49999 8.271C9.16666 8.59033 8.99999 9.014 8.99999 9.542V14.042C9.47199 14.4307 9.88866 14.9167 10.25 15.5C10.6113 16.0833 10.792 16.7917 10.792 17.625V21.958Z" fill="white"/>
</g>
</svg>
