<svg width="40" height="40" viewBox="0 0 40 40" fill="none" xmlns="http://www.w3.org/2000/svg">
<mask id="mask0_5_1575" style="mask-type:alpha" maskUnits="userSpaceOnUse" x="0" y="0" width="40" height="40">
<rect width="40" height="40" fill="#D9D9D9"/>
</mask>
<g mask="url(#mask0_5_1575)">
<path d="M6.66699 35V18.667L3.33299 21.208L1.66699 18.958L6.66699 15.167V10.292H9.45799V13.042L20 4.99999L38.333 19L36.667 21.167L33.333 18.667V35H6.66699ZM9.45799 32.208H18.625V25.542H21.375V32.208H30.542V16.542L20 8.49999L9.45799 16.542V32.208ZM6.66699 8.33299C6.66699 7.02766 7.13199 5.91666 8.06199 4.99999C8.99266 4.08333 10.097 3.62499 11.375 3.62499C11.9303 3.62499 12.3957 3.43066 12.771 3.04199C13.1457 2.65266 13.333 2.19433 13.333 1.66699H16.125C16.125 2.97233 15.6667 4.08333 14.75 4.99999C13.8333 5.91666 12.7083 6.37499 11.375 6.37499C10.847 6.37499 10.3957 6.56266 10.021 6.93799C9.64566 7.31266 9.45799 7.77766 9.45799 8.33299H6.66699Z" fill="white"/>
</g>
</svg>
