<svg width="40" height="40" viewBox="0 0 40 40" fill="none" xmlns="http://www.w3.org/2000/svg">
<mask id="mask0_5_1569" style="mask-type:alpha" maskUnits="userSpaceOnUse" x="0" y="0" width="40" height="40">
<rect width="40" height="40" fill="#D9D9D9"/>
</mask>
<g mask="url(#mask0_5_1569)">
<path d="M6.12501 6.66699L9.29201 13.125H14.542L11.375 6.66699H14.958L18.125 13.125H23.417L20.25 6.66699H23.833L27 13.125H32.292L29.125 6.66699H33.875C34.625 6.66699 35.2777 6.94466 35.833 7.49999C36.389 8.05533 36.667 8.70799 36.667 9.45799V30.542C36.667 31.292 36.389 31.9447 35.833 32.5C35.2777 33.0553 34.625 33.333 33.875 33.333H6.12501C5.37501 33.333 4.72234 33.0553 4.16701 32.5C3.61101 31.9447 3.33301 31.292 3.33301 30.542V9.45799C3.33301 8.70799 3.61101 8.05533 4.16701 7.49999C4.72234 6.94466 5.37501 6.66699 6.12501 6.66699ZM6.12501 15.875V30.542H33.875V15.875H6.12501Z" fill="white"/>
</g>
</svg>
